<?xml version="1.0" encoding="utf-8"?><svg xmlns="http://www.w3.org/2000/svg" xmlns:xlink="http://www.w3.org/1999/xlink" width="1302" height="697" preserveAspectRatio="xMidYMid" viewBox="0 0 1302 697" style="z-index:1;margin-right:-2px;display:block;background-repeat-y:initial;background-repeat-x:initial;background-color:rgb(241, 242, 243);animation-play-state:paused" ><g transform="translate(651,348.5) scale(1,1) translate(-651,-348.5)" style="transform:matrix(1, 0, 0, 1, 0, 0);animation-play-state:paused" ><g transform="translate(1011.0736391396022,69.1982556503387) scale(100)" opacity="0.4" style="transform:matrix(100, 0, 0, 100, 1011.07, 69.1983);opacity:0.4;animation-play-state:paused" ><path d="M4.42029 0 C4.42029 1.0481099999999999 4.588927097997057 1.4391651140394912 4.064872097997057 2.3468549999999992 S3.117834885960508 3.3040284320943156 2.2101450000000002 3.828083432094316 S1.04811 4.693709999999999 2.8740684638129613e-16 4.693709999999999 S-1.3024551140394909 4.352138432094316 -2.210144999999999 3.8280834320943162 S-3.540817097997056 3.254544885960509 -4.064872097997056 2.3468550000000015 S-4.42029 1.0481100000000003 -4.42029 5.413293999803054e-16 S-4.588927097997058 -1.4391651140394903 -4.064872097997058 -2.3468549999999984 S-3.117834885960509 -3.3040284320943147 -2.2101450000000016 -3.8280834320943153 S-1.0481100000000008 -4.693709999999999 -8.622205391438883e-16 -4.693709999999999 S1.3024551140394884 -4.352138432094317 2.2101449999999967 -3.8280834320943176 S3.5408170979970555 -3.2545448859605095 4.064872097997056 -2.346855000000002 S4.42029 -1.048110000000001 4.42029 -1.0826587999606107e-15" fill="#084f5a" stroke-width="0" transform="matrix(1,0,0,1,0,0)" style="transform:matrix(1, 0, 0, 1, 0, 0);animation-play-state:paused" ></path></g>
<g transform="translate(1083.0883669675225,13.337906780406456) scale(100)" opacity="0.4" style="transform:matrix(100, 0, 0, 100, 1083.09, 13.3379);opacity:0.4;animation-play-state:paused" ><path d="M5.304347999999999 0 C5.304347999999999 1.2577319999999996 5.506712517596468 1.7269981368473897 4.877846517596469 2.816225999999999 S3.741401863152609 3.964834118513179 2.652174 4.593700118513179 S1.257732 5.632451999999999 3.4488821565755535e-16 5.632451999999999 S-1.562946136847389 5.222566118513178 -2.6521739999999983 4.593700118513179 S-4.2489805175964666 3.9054538631526103 -4.877846517596467 2.8162260000000012 S-5.304347999999999 1.2577320000000003 -5.304347999999999 6.495952799763663e-16 S-5.506712517596468 -1.7269981368473881 -4.877846517596469 -2.8162259999999977 S-3.741401863152611 -3.9648341185131777 -2.652174000000002 -4.593700118513178 S-1.2577320000000007 -5.632451999999999 -1.0346646469726659e-15 -5.632451999999999 S1.5629461368473863 -5.222566118513179 2.652173999999996 -4.593700118513181 S4.2489805175964666 -3.9054538631526112 4.877846517596467 -2.816226000000002 S5.304347999999999 -1.257732000000001 5.304347999999999 -1.2991905599527327e-15" fill="#23616c" stroke-width="0" transform="matrix(1,0,0,1,0,0)" style="transform:matrix(1, 0, 0, 1, 0, 0);animation-play-state:paused" ></path></g>
<g transform="translate(1255.9237137545315,-120.7269305074309) scale(100)" opacity="0.4" style="transform:matrix(100, 0, 0, 100, 1255.92, -120.727);opacity:0.4;animation-play-state:paused" ><path d="M7.426087199999998 0 C7.426087199999998 1.7608247999999995 7.7093975246350555 2.4177973915863458 6.8289851246350555 3.942716399999999 S5.237962608413653 5.550767765918449 3.7130435999999998 6.431180165918449 S1.7608248 7.8854327999999985 4.828435019205775e-16 7.8854327999999985 S-2.188124591586344 7.311592565918449 -3.713043599999997 6.43118016591845 S-5.948572724635054 5.4676354084136545 -6.828985124635054 3.942716400000002 S-7.426087199999998 1.7608248000000004 -7.426087199999998 9.094333919669127e-16 S-7.7093975246350555 -2.417797391586344 -6.828985124635056 -3.942716399999997 S-5.237962608413655 -5.550767765918447 -3.713043600000002 -6.431180165918448 S-1.760824800000001 -7.8854327999999985 -1.4485305057617322e-15 -7.8854327999999985 S2.18812459158634 -7.311592565918451 3.713043599999994 -6.431180165918453 S5.948572724635052 -5.467635408413655 6.828985124635053 -3.942716400000003 S7.426087199999998 -1.7608248000000013 7.426087199999998 -1.8188667839338254e-15" fill="#38737f" stroke-width="0" transform="matrix(1,0,0,1,0,0)" style="transform:matrix(1, 0, 0, 1, 0, 0);animation-play-state:paused" ></path></g></g></svg>